<svg xmlns="http://www.w3.org/2000/svg" width="799.898" height="453.442"><g transform="translate(318.234 267.411)"><path d="M207.011 183.879h-17.585V48.54h14.3a2.62 2.62 0 012.62 2.607z" fill="#ccc"/><path d="M191.069 184.596H2.232V88.211h188.837z" fill="#fff"/><path d="M116.639 184.237H2.59V88.569h188.121v21.6a74.156 74.156 0 01-74.072 74.068z" fill="#f2f2f2"/><path d="M204.147 52.384a2.623 2.623 0 00-.219.566l-6.512 25.1-7.063 13.376H2.953v-3.332l10.67-10.045L26.07 54.242a10.624 10.624 0 012.135-2.815 10.625 10.625 0 017.281-2.887h166.35a2.62 2.62 0 012.317 3.844z" fill="#f2f2f2"/><path d="M191.069 184.596H2.232V88.211h188.837zm-187.4-1.434h185.967V89.645H3.669z" fill="#e6e6e6"/><path d="M200.895 65.226l-3.479 12.826H13.619l5.939-10.675z" fill="#ccc"/><path fill="#fff" d="M9.195 138.718h30.103v1.666H9.195zM9.195 144.548h30.103v1.666H9.195zM9.195 150.379h30.103v1.666H9.195z"/><circle cx="10.828" cy="10.828" r="10.828" transform="translate(10.028 98.505)" fill="#fff"/><path d="M139.531 70.776h-9.2V-.003h7.479a1.37 1.37 0 011.37 1.363z" fill="#ccc"/><path d="M131.195 71.15H32.441v-50.4h98.754z" fill="#fff"/><path d="M92.27 70.963H32.628v-50.03h98.378v11.291A38.78 38.78 0 0192.27 70.96z" fill="#f2f2f2"/><path d="M138.033 2.011a1.37 1.37 0 00-.115.3l-3.405 13.126-3.694 7h-98v-1.742l5.58-5.253 6.509-12.45a5.557 5.557 0 011.116-1.472A5.556 5.556 0 0149.831.01h86.993a1.37 1.37 0 011.212 2.01z" fill="#f2f2f2"/><path d="M131.195 71.15H32.441v-50.4h98.754zm-98-.75h97.254V21.498H33.191z" fill="#e6e6e6"/><path d="M136.333 8.725l-1.819 6.707H38.396l3.106-5.583z" fill="#ccc"/><path fill="#fff" d="M36.083 47.158h15.742v.871H36.083zM36.083 50.207h15.742v.871H36.083zM36.083 53.256h15.742v.871H36.083z"/><circle cx="5.662" cy="5.662" r="5.662" transform="translate(36.518 26.129)" fill="#fff"/><path d="M25.499 20.171a24.9 24.9 0 00-25.491 24.3c-.33 13.748 9.459 42.672 23.617 53.751 4.08-23.989 24.422-39.8 26.17-52.555 1.867-13.63-10.544-25.166-24.296-25.496z" fill="#d1d3d4"/><circle cx="8.121" cy="8.121" r="8.121" transform="translate(14.821 34.622)" fill="#fff"/><circle cx="5.319" cy="5.319" r="5.319" transform="translate(14.561 99.645)" fill="#d1d3d4"/><path d="M29.121 36.356a8.121 8.121 0 11-7.1 14.6 8.12 8.12 0 004.6-15.355 8.121 8.121 0 012.5.755z" fill="#231f20" opacity=".2" style="isolation:isolate"/><path d="M49.828 45.686c-1.748 12.751-22.089 28.567-26.17 52.555A34.453 34.453 0 0119.91 94.8c4.967-22.649 24.011-37.831 25.7-50.15 1.511-11.026-6.332-20.683-16.665-24.141C41.256 22.47 51.54 33.2 49.828 45.686z" fill="#231f20" opacity=".2" style="isolation:isolate"/></g><g transform="translate(552.551 91.02)"><path d="M193.377 359.376H.614c-.339 0-.614-.553-.614-1.236s.275-1.236.614-1.236h192.763c.339 0 .614.553.614 1.236s-.274 1.236-.614 1.236z" fill="#e6e6e6"/><g transform="translate(19.426 10.111)"><path d="M133.273 52.994a14.971 14.971 0 01-5.7 4.179l-6.322 7.119-17.907 21.623-12.1 7.318-5.619-9.671 26.516-25.831 7.39-7.518a14.961 14.961 0 013.322-6.244c3.914-4.521 9.421-6.168 12.3-3.676s2.036 8.178-1.88 12.7z" fill="#ed9da0"/><path d="M25.041 74.475l11.645-19.38L86.23 76.382l27.08-22.126 11.127 9.585c.384.331-27.308 38.685-29.274 38.64S25.041 74.474 25.041 74.474z" fill="#f15923"/><path fill="#ed9da0" d="M29.085 40.851h17.219v33.425H29.085z"/><path d="M74.731 133.99l-41.528-3.039s-17.22 39.5-4.052 64.824l9.117 52.67-3.607 86.69h18.862l29.31-139.36z" fill="#090814"/><path d="M66.628 178.233l16.2 14.106-8.1 138.149H56.5z" fill="#090814"/><circle cx="21.527" cy="21.527" r="21.527" transform="translate(15.935 4.368)" fill="#ed9da0"/><path d="M34.883 314.561l22.241 3.519 4.18 15.951s18.056 6.795 9.356 14.178-40.841 3.566-43.381-1.73 7.604-31.918 7.604-31.918z" fill="#090814"/><path d="M53.116 314.561l22.238 3.513 4.18 15.951s18.056 6.795 9.356 14.178-40.841 3.566-43.381-1.73 7.609-31.913 7.609-31.913z" fill="#090814"/><path d="M114.549 130.564a14.969 14.969 0 01-6.888-1.593l-9.52-.144-28.069.544-13.441-4.39 3.661-10.566 36.879 3.233 10.519.692a14.96 14.96 0 016.9-1.558c5.981.014 10.82 3.113 10.812 6.919s-4.866 6.88-10.85 6.864z" fill="#ed9da0"/><path d="M47.89 53.467H26.579l-7.05 21.271 13.674 56.214 41.528 3.039-2.532-22.789a23.08 23.08 0 00-.991-25.671z" fill="#f15923"/><path d="M27.633 62.583l22.285-3.826 16.2 51.43 34.438 6.077v14.687c0 .508-47.133 4.558-48.382 3.039S27.629 62.582 27.629 62.582z" fill="#f15923"/><path d="M48.211 13.414c2.645 4.29.206 9.941-3.051 13.787s-7.459 7.221-8.913 12.046c-1.3 4.326-.118 8.991 1.416 13.243s3.441 8.488 3.6 13-1.981 9.5-6.233 11.027c-4.365 1.565-9.526-.894-13.73 1.062-5.476 2.547-6.717 11.366-12.687 12.28-3.674.563-7.079-2.623-8.106-6.2s-.29-7.385.453-11.027l6.1-29.936 5.077-24.909c1.01-4.957 2.209-10.261 5.935-13.683C22.625-.078 29.487-.178 35.664.073c5.675.23 11.582.619 16.52 3.421s8.57 8.758 6.858 14.173a8.542 8.542 0 00-10.276-4.606" fill="#090814"/></g><path d="M133.204 132.756h9.8V57.312h-7.972a1.461 1.461 0 00-1.461 1.453z" fill="#ccc"/><path d="M142.088 79.433h105.26v53.726h-105.26z" fill="#fff"/><path d="M142.289 91.668V79.631h104.86v53.326h-63.572a41.335 41.335 0 01-41.288-41.289z" fill="#f2f2f2"/><path d="M134.796 59.46a1.463 1.463 0 01.122.316l3.63 13.991 3.937 7.456h104.46v-1.857l-5.947-5.6-6.938-13.271a5.92 5.92 0 00-1.19-1.569 5.922 5.922 0 00-4.058-1.609H136.09a1.461 1.461 0 00-1.291 2.143z" fill="#f2f2f2"/><path d="M142.088 79.433h105.26v53.726h-105.26zm104.461 52.927H142.887V80.233h103.662z" fill="#e6e6e6"/><path d="M136.611 66.618l1.939 7.15H241l-3.311-5.95z" fill="#ccc"/><path d="M142.088 79.433h105.26v53.726h-105.26zm104.461 52.927H142.887V80.233h103.662z" fill="#e6e6e6"/><path fill="#f15923" d="M226.688 107.583h16.779v.929h-16.779zM226.688 110.832h16.779v.929h-16.779zM226.688 114.082h16.779v.929h-16.779z"/><circle cx="6.036" cy="6.036" transform="translate(230.931 85.166)" fill="#f15923" r="6.036"/><path d="M188.278.008a26.757 26.757 0 0127.391 26.107c.355 14.773-10.164 45.854-25.378 57.759-4.385-25.778-26.243-42.773-28.121-56.474C160.164 12.759 173.505.363 188.278.008z" fill="#d1d3d4"/><circle cx="8.726" cy="8.726" transform="translate(182.301 15.535)" fill="#f15923" r="8.726"/><circle cx="5.716" cy="5.716" transform="translate(188.602 85.407)" fill="#f15923" r="5.716"/><path d="M184.386 17.398a8.726 8.726 0 007.634 15.694 8.725 8.725 0 01-4.947-16.5 8.726 8.726 0 00-2.688.806z" fill="#231f20" opacity=".2" style="isolation:isolate"/><path d="M162.135 27.425c1.878 13.7 23.736 30.7 28.121 56.474a37.007 37.007 0 004.028-3.7c-5.337-24.338-25.8-40.651-27.616-53.89-1.624-11.848 6.8-22.226 17.908-25.942-13.23 2.112-24.28 13.642-22.441 27.058z" fill="#231f20" opacity=".2" style="isolation:isolate"/></g><path d="M281.543 450.094H88.78c-.339 0-.614-.553-.614-1.236s.275-1.236.614-1.236h192.763c.339 0 .614.553.614 1.236s-.274 1.236-.614 1.236z" fill="#e6e6e6"/><g transform="translate(132.749 94.151)"><path d="M14.71 72.229c-4.418-4.5-10.321-5.861-13.18-3.049s-1.6 8.735 2.822 13.232a15.775 15.775 0 006.275 4.014l18.956 18.816 8.642-9.083-19.608-17.582a15.776 15.776 0 00-3.908-6.345z" fill="#ed9da0"/><path d="M75.345 56.699l-19.878 44.1-31.743-17.183-11.362 6.029s25.946 43.382 43.717 38.444 49.317-49.717 43.633-63.538-24.369-7.853-24.369-7.853z" fill="#e6e6e6"/><path d="M84.062 350.603H69.567l-6.9-55.906H84.06z" fill="#ed9da0"/><path d="M34.401 350.274a12.436 12.436 0 00-.69 4.1 4.92 4.92 0 004.918 4.92h44.889a3.356 3.356 0 003.356-3.356v-1.869s2.222-5.617-2.351-12.543c0 0-5.682 5.421-14.172-3.07l-2.5-4.536-18.127 13.249-10.049 1.24c-2.2.27-4.146-.042-5.277 1.864z" fill="#090814"/><path d="M73.093 59.53L72.8 39.98l12.056-7.515 13.109 16.031z" fill="#ed9da0"/><circle cx="21.441" cy="21.441" r="21.441" transform="translate(51.614 3.181)" fill="#ed9da0"/><path d="M43.814 188.803l19.973 135.914h25.064l-3.337-77.582-1.754-40.8 5.089-19.417a86.725 86.725 0 004.273-9.548c2.2-5.9 3.942-12.982 1.362-16.342-.95-1.237-3.42-2.15-6.776-2.835a70.133 70.133 0 00-7.015-1c-14.819-1.466-35.9-.55-35.9-.55l-.536 17.684-.3 9.875z" fill="#090814"/><path d="M109.59 343.956l-14.341 2.106-14.954-54.31 21.166-3.11z" fill="#ed9da0"/><path d="M60.413 350.853a12.445 12.445 0 00-.086 4.157 4.92 4.92 0 005.583 4.151l44.41-6.532a3.356 3.356 0 002.833-3.809l-.272-1.849s1.38-5.877-4.15-12.064c0 0-4.833 6.19-14.468-.975l-3.137-4.123-16 15.75-9.763 2.682c-2.135.587-4.108.562-4.95 2.61zM43.5 166.137l2.739 23.592 14.94 49.716 24.594 81.847 24.789-3.643-22.248-116.376 2.2-19.956s.717-1.983 1.54-4.888c1.632-5.745 3.68-15.1 1.427-19.873a5.579 5.579 0 00-1.158-1.667c-.886-.86-2.686-1.381-5.1-1.658-10.083-1.14-30.849 2.12-40.088 3.72l-3.638 9.184z" fill="#090814"/><path d="M95.208 44.365L70.851 56.057s-25.819 76.482-25.819 80.379-7.307 6.333-2.923 10.718-8.16 8.1-1.4 11.6 48.927 22.658 53.613 20.929c12.932-4.764-.548-22.271-.548-22.271s9.717-7.827 8.256-11.721 8.769-78.43 8.769-78.43z" fill="#e6e6e6"/><path d="M74.365 29.759l-2.754 5.519s-2.758-9.928-7.167-12.134-4.964-5.519-4.964-5.519-5.519 7.167-9.377 5.519-5.519-2.758-1.1-9.377 3.309-3.309 3.309-3.309 3.861-5.519 3.309-3.861 3.309-4.412 3.309-2.758S61.688.53 61.688 2.184 73.271-1.677 71.616.529s9.929-4.414 15.441 4.408 13.163 7.193 10.442 12.7-1.619 20.4-1.619 20.4h-7.6s-7.837-14.892-13.9-8.273z" fill="#090814"/><path d="M20.989 111.757c-6.045-1.786-11.866-.115-13 3.733s2.843 8.412 8.888 10.2a15.775 15.775 0 007.436.465l25.708 7.243 3.142-12.137-25.678-5.852a15.776 15.776 0 00-6.5-3.65z" fill="#ed9da0"/><path d="M66.46 68.745l4.03 48.2-36.093.388-7 10.786s43.747 25.33 56.883 12.388 18.98-67.408 7.3-76.732-25.116 4.965-25.116 4.965z" fill="#e6e6e6"/></g><g><path d="M161.306 207.925h-7.782v-59.894h6.329a1.16 1.16 0 011.16 1.154z" fill="#3f3d56"/><path d="M154.251 208.248h-83.57v-42.66h83.57z" fill="#fff"/><path d="M121.312 208.085H70.84v-42.338h83.253v9.557a32.818 32.818 0 01-32.781 32.781z" fill="#f15923"/><path d="M160.039 149.733a1.16 1.16 0 00-.1.251l-2.882 11.108-3.126 5.92H70.998v-1.474l4.722-4.445 5.508-10.536a4.7 4.7 0 01.945-1.246 4.7 4.7 0 013.222-1.278h73.618a1.16 1.16 0 011.025 1.7z" fill="#3f3d56"/><path d="M154.251 208.248h-83.57v-42.66h83.57zm-82.936-.634h82.3v-41.391h-82.3z" fill="#3f3d56"/><path d="M158.599 155.414l-1.539 5.677H75.721l2.628-4.725z" fill="#f15923"/><path fill="#fff" d="M73.763 187.938h13.322v.737H73.763zM73.763 190.518h13.322v.737H73.763zM73.763 193.099h13.322v.737H73.763z"/><circle cx="4.792" cy="4.792" r="4.792" transform="translate(74.131 170.144)" fill="#fff"/><path d="M21.723 4.308a39.218 39.218 0 00-17.592 52.6c9.667 19.383 44.6 52.44 72.469 57.434-11.989-36.4 4.681-73.4-2.278-92.44C66.886 1.557 41.106-5.359 21.723 4.308z" fill="#f15923"/><circle cx="12.79" cy="12.79" r="12.79" transform="translate(21.998 24.825)" fill="#fff"/><circle cx="8.377" cy="8.377" r="8.377" transform="translate(67.977 118.114)" fill="#f15923"/><path d="M38.687 24.171a12.79 12.79 0 11.866 25.565 12.788 12.788 0 00-4.9-24.767 12.792 12.792 0 014.034-.798z" fill="#231f20" opacity=".2" style="isolation:isolate"/><path d="M74.386 21.907c6.958 19.038-9.711 56.039 2.278 92.44a54.255 54.255 0 01-7.752-2.029c-9.768-35.189 5.563-70.351-1.16-88.745C61.735 7.11 43.703-.558 26.77 2.239c18.583-6.338 40.803 1.024 47.616 19.668z" fill="#231f20" opacity=".2" style="isolation:isolate"/></g></svg>